<svg id="Calque_1" data-name="Calque 1" xmlns="http://www.w3.org/2000/svg" viewBox="0 0 928.58 933.03"><defs><style>.cls-1,.cls-8{fill:#c6c6c6;}.cls-2,.cls-4,.cls-7{fill:#fff;}.cls-2{stroke:#45509d;}.cls-2,.cls-7{stroke-miterlimit:10;}.cls-3{fill:#a8a8a8;}.cls-5{fill:#45509d;}.cls-6{fill:#f16262;}.cls-7{stroke:#f16262;}.cls-8,.cls-9{font-size:165.46px;font-family:ChalkboardSE-Regular, Chalkboard SE;}.cls-9{fill:#565656;}</style></defs><circle class="cls-1" cx="314.5" cy="320" r="208.41"/><polygon class="cls-2" points="745.17 563.72 725.52 545.44 654.42 708.83 677.63 718.93 745.17 563.72"/><circle class="cls-3" cx="277.73" cy="299.93" r="225.63"/><polygon class="cls-4" points="459.18 165.8 438.89 142.02 341.98 291.55 367.12 307.84 459.18 165.8"/><circle class="cls-4" cx="364.18" cy="284.84" r="44.94"/><polygon class="cls-5" points="438.7 142.05 459 165.83 555.9 16.3 530.76 0 438.7 142.05"/><polygon class="cls-4" points="116.6 142.02 91.66 158.37 188.09 308.21 213.29 291.99 116.6 142.02"/><circle class="cls-4" cx="191.11" cy="285.21" r="44.94"/><polygon class="cls-5" points="96.36 165.68 116.6 142.02 25.2 0 0 16.22 96.36 165.68"/><polygon class="cls-4" points="257.92 524.54 287.68 534.1 291.54 355.96 261.58 355.31 257.92 524.54"/><circle class="cls-4" cx="276.18" cy="373.34" r="44.94"/><polygon class="cls-5" points="287.82 525.56 258.06 524.42 254.2 702.56 284.15 703.21 287.82 525.56"/><polygon class="cls-2" points="504.52 536.86 524.91 554.89 592.66 390.08 568.88 380.31 504.52 536.86"/><circle class="cls-5" cx="580.05" cy="404.58" r="43.86"/><polygon class="cls-5" points="527.07 555.64 502.75 536 435 700.8 462.71 712.2 527.07 555.64"/><polygon class="cls-2" points="604.65 548.25 631.84 549.48 581.16 378.66 556.51 385.97 604.65 548.25"/><circle class="cls-6" cx="576.8" cy="403.43" r="44.94"/><polygon class="cls-5" points="633.99 548.72 602.73 548.69 653.41 719.51 682.14 710.99 633.99 548.72"/><polygon class="cls-5" points="723.71 544.66 747.45 564.85 897.24 220.67 869.76 208.72 723.71 544.66"/><circle class="cls-7" cx="883.13" cy="210.46" r="44.94"/><text class="cls-8" transform="translate(160.06 863.55)">EVENTS</text><text class="cls-9" transform="translate(155.85 862.09)">EVENTS</text></svg>